
        <svg xmlns="http://www.w3.org/2000/svg" xmlns:xlink="http://www.w3.org/1999/xlink" version="1.1" width="3116.2835675293186" height="420.0743876996628" viewBox="0 0 3116.2835675293186 420.0743876996628">
			
			<g transform="scale(5.814178376465921) translate(10, 10)">
				<defs id="SvgjsDefs8083"/><g id="SvgjsG8084" featureKey="symbolContainer" transform="matrix(0.95,0,0,0.95,4,0)" fill="#3d84a8">    <path xmlns="http://www.w3.org/2000/svg" fill-rule="nonzero" d="             M0,0             H103             V55             H0,0             z             M4,4             v47             h95             v-47             z     "/></g><g id="SvgjsG8085" featureKey="monogramFeature-0" transform="matrix(0.634747921425814,0,0,0.634747921425814,16.428726507511094,1.6507076976080999)" fill="#3d84a8"><path d="M14.94 60.3 l-14.04 -42.3 l12.3 0 l7.32 24.3 l8.1 -24.42 l10.02 0 l8.1 24.42 l7.32 -24.3 l12.06 0 l-14.04 42.3 l-10.14 0 l-8.46 -24.18 l-8.4 24.18 l-10.14 0 z M70.74 60 l0 -42 l11.64 0 l0 17.04 l14.46 -17.04 l13.8 0 l-15.9 18.06 l16.44 23.94 l-13.98 0 l-10.56 -15.6 l-4.26 4.74 l0 10.86 l-11.64 0 z"/></g><g id="SvgjsG8086" featureKey="nameFeature-0" transform="matrix(0.5992857329010483,0,0,0.5992857329010483,117.33281499970052,-3.9928573290104827)" fill="#1b1c1c"><path d="M8.7305 40 l-7.6172 -27.852 l4.8633 0 l6.0156 22.012 l6.582 -22.012 l4.0234 0 l6.5625 22.012 l6.0547 -22.012 l4.8438 0 l-7.6172 27.852 l-5.8203 0 l-6.0352 -19.297 l-6.0352 19.297 l-5.8203 0 z M62.187875 29.844 l-0.058594 1.1328 l-14.941 0 c0.17578 3.9063 2.6953 5.7813 5.6836 5.7813 c2.1875 0 3.9648 -1.1133 4.8633 -3.0859 l4.1016 0.70313 c-1.3672 3.7891 -4.7656 5.9961 -8.9258 5.9961 c-6.0352 0 -10.137 -3.75 -10.137 -10.195 s4.1992 -10.215 10 -10.215 c5.4102 0 9.3945 3.1641 9.4141 9.8828 z M52.792875 23.301 c-2.7539 0 -4.7852 1.3281 -5.4102 4.3164 l10.293 0 c-0.35156 -2.9102 -2.2852 -4.3164 -4.8828 -4.3164 z M71.3085625 23.652 c0.95703 -1.9531 3.4766 -3.4961 6.3281 -3.5156 l0 4.1016 c-4.0039 0 -6.1523 1.4648 -6.1523 5.7422 l0 10.02 l-4.5117 0 l0 -19.648 l4.3359 0 l0 3.3008 z M91.7189375 19.98 c4.3945 0 7.0703 2.4219 7.0703 6.7969 l0 13.223 l-4.5313 0 l0 -12.246 c0 -2.9688 -1.7969 -4.1016 -3.8672 -4.1016 c-2.4805 0 -4.6094 1.4063 -4.6289 5.0586 l0 11.289 l-4.4922 0 l0 -19.648 l4.4922 0 l0 2.3242 c1.3086 -1.6992 3.3984 -2.6953 5.957 -2.6953 z M122.59803124999999 29.844 l-0.058594 1.1328 l-14.941 0 c0.17578 3.9063 2.6953 5.7813 5.6836 5.7813 c2.1875 0 3.9648 -1.1133 4.8633 -3.0859 l4.1016 0.70313 c-1.3672 3.7891 -4.7656 5.9961 -8.9258 5.9961 c-6.0352 0 -10.137 -3.75 -10.137 -10.195 s4.1992 -10.215 10 -10.215 c5.4102 0 9.3945 3.1641 9.4141 9.8828 z M113.20303125 23.301 c-2.7539 0 -4.7852 1.3281 -5.4102 4.3164 l10.293 0 c-0.35156 -2.9102 -2.2852 -4.3164 -4.8828 -4.3164 z M131.71871875 23.652 c0.95703 -1.9531 3.4766 -3.4961 6.3281 -3.5156 l0 4.1016 c-4.0039 0 -6.1523 1.4648 -6.1523 5.7422 l0 10.02 l-4.5117 0 l0 -19.648 l4.3359 0 l0 3.3008 z M176.71871875 40 l-5.2344 0 l-2.0313 -2.6172 c-2.5586 1.875 -5.6836 3.0078 -9.082 3.0078 c-5.3125 0 -9.3359 -2.7344 -9.3359 -7.8516 c0 -4.1016 2.5977 -6.1133 7.5 -9.1992 l-0.039063 -0.039063 c-2.0703 -2.6758 -2.8906 -4.2773 -2.8906 -6.0352 c0 -1.7773 0.78125 -3.1445 2.0508 -4.082 c1.2305 -0.9375 2.9688 -1.4453 4.9023 -1.4453 c4.1602 0 7.0508 2.207 7.0508 5.5859 c0 2.5391 -1.6211 4.4727 -5.4492 6.7969 l5.7031 7.207 c1.5625 -2.2656 2.4414 -4.9609 2.4414 -7.3828 l4.1211 0 c0 3.8867 -1.4844 7.6953 -3.9844 10.645 z M160.60571875 15.547 c-0.44922 0.42969 -0.72266 1.0742 -0.72266 1.8555 c0 1.1133 0.54688 1.9141 1.875 3.6719 l0.33203 0.42969 c2.2852 -1.4258 3.457 -2.7344 3.457 -4.2188 c0 -1.582 -1.3281 -2.5 -2.8711 -2.5 c-0.82031 0 -1.543 0.25391 -2.0703 0.76172 z M160.54671875 36.6406 c2.4805 0 4.707 -0.89844 6.5234 -2.3242 l-6.3477 -8.1445 c-3.3398 2.0703 -5.4883 3.457 -5.4883 6.25 c0 2.832 2.2461 4.2188 5.3125 4.2188 z M209.7261875 40 l-9.3164 -12.363 l-2.2656 0 l0 12.363 l-4.668 0 l0 -27.852 l4.668 0 l0 11.348 l2.2266 0 l9.1602 -11.348 l5.7227 0 l-10.859 13.301 l11.309 14.551 l-5.9766 0 z M219.68750625 40 l0 -30 l4.5313 0 l0 30 l-4.5313 0 z M235.21484375 40.37109 c-3.1836 0 -6.0547 -1.5234 -6.0547 -5.3516 c0 -4.1992 3.418 -5.5078 7.5195 -6.25 l2.9688 -0.54688 c1.2891 -0.25391 1.8164 -0.83984 1.8164 -1.7773 c0 -2.4219 -1.8945 -3.2227 -3.8477 -3.2227 c-2.1289 0 -3.8672 0.9375 -4.1602 3.457 l-4.043 -0.74219 c0.68359 -4.0625 3.6133 -5.9375 8.4766 -5.9375 c3.9258 0 7.8906 1.4063 7.8906 6.9336 l0 7.6172 c0 1.8555 0.48828 2.3828 1.8555 2.3828 l0.3125 0 l0 3.0664 l-2.1289 0 c-2.207 0 -3.5352 -0.78125 -3.9844 -2.5977 l-0.21484 0 c-1.5234 2.1484 -4.043 2.9688 -6.4063 2.9688 z M236.26954375 36.8359 c3.0859 0 5.4883 -2.2852 5.4883 -5.8789 l-5.0195 1.1133 c-2.0703 0.39063 -3.2227 1.0938 -3.2227 2.5781 c0 1.543 1.2109 2.1875 2.7539 2.1875 z M264.92209375 20.352 l4.4922 0 l0 19.648 l-4.2773 0 l-0.11719 -2.4609 c-1.3086 1.7969 -3.4375 2.832 -6.0547 2.832 c-4.375 0 -7.0703 -2.4023 -7.0703 -6.7969 l0 -13.223 l4.5313 0 l0 12.246 c0 2.9688 1.7969 4.1016 3.8867 4.1016 c2.4805 0 4.5898 -1.4063 4.6094 -5.0586 l0 -11.289 z M282.34375625 40.37109 c-4.2773 0 -7.5391 -1.8164 -8.2031 -5.4492 l3.8086 -1.0742 c0.52734 2.2266 2.1875 3.3008 4.3945 3.3008 c1.6211 0 3.3789 -0.58594 3.3398 -2.4805 c-0.039063 -2.2266 -2.8906 -2.5 -6.0352 -3.5547 c-2.5391 -0.82031 -5 -1.9727 -5 -5.3906 c0 -3.9453 3.2617 -5.7227 7.3242 -5.7227 c3.7109 0 6.7969 1.5039 7.4805 5.1563 l-3.5547 0.83984 c-0.52734 -2.0703 -2.0898 -2.8906 -3.9063 -2.8906 c-1.6211 0 -3.2031 0.625 -3.2031 2.2461 c0 1.875 2.3047 2.2656 4.8047 2.9297 c3.0664 0.80078 6.4258 1.9727 6.4258 6.1328 c0 4.3555 -3.6328 5.957 -7.6758 5.957 z M312.5394375 29.844 l-0.058594 1.1328 l-14.941 0 c0.17578 3.9063 2.6953 5.7813 5.6836 5.7813 c2.1875 0 3.9648 -1.1133 4.8633 -3.0859 l4.1016 0.70313 c-1.3672 3.7891 -4.7656 5.9961 -8.9258 5.9961 c-6.0352 0 -10.137 -3.75 -10.137 -10.195 s4.1992 -10.215 10 -10.215 c5.4102 0 9.3945 3.1641 9.4141 9.8828 z M303.1444375 23.301 c-2.7539 0 -4.7852 1.3281 -5.4102 4.3164 l10.293 0 c-0.35156 -2.9102 -2.2852 -4.3164 -4.8828 -4.3164 z M327.773625 19.98 c4.3945 0 7.0703 2.4219 7.0703 6.7969 l0 13.223 l-4.5313 0 l0 -12.246 c0 -2.9688 -1.7969 -4.1016 -3.8672 -4.1016 c-2.4805 0 -4.6094 1.4063 -4.6289 5.0586 l0 11.289 l-4.4922 0 l0 -19.648 l4.4922 0 l0 2.3242 c1.3086 -1.6992 3.3984 -2.6953 5.957 -2.6953 z"/></g><g id="SvgjsG8087" featureKey="sloganFeature-0" transform="matrix(1,0,0,1,117.69999992847443,29.94000005722046)" fill="#272a2b"><path d="M1.7 20 l-1.4 0 l5.66 -14.4 l1.54 0 l5.52 14.4 l-1.4 0 l-1.66 -4.52 l-6.56 0 z M6.68 6.76 l-2.82 7.56 l5.64 0 z M14.98 14.58 l0 -8.98 l1.36 0 l0 8.58 c0 3.56 1.28 5.04 4.22 5.04 c3.1 0 4.22 -1.64 4.22 -5.04 l0 -8.58 l1.36 0 l0 8.98 c0 3.74 -1.86 5.8 -5.58 5.8 c-3.76 0 -5.58 -2.12 -5.58 -5.8 z M28.1 6.76 l0 -1.16 l10.48 0 l0 1.16 l-4.56 0 l0 13.24 l-1.36 0 l0 -13.24 l-4.56 0 z M39.96000000000001 12.82 c-0.02 -4.2 2.34 -7.6 6.64 -7.6 c4.5 0 6.78 3.38 6.78 7.6 c0 4.14 -2.28 7.56 -6.72 7.56 s-6.7 -3.42 -6.7 -7.56 z M46.68000000000001 19.22 c3.74 0 5.34 -3.04 5.34 -6.4 c0 -4 -2.06 -6.44 -5.38 -6.44 c-3.7 0 -5.32 3.1 -5.32 6.44 c0 3.4 1.6 6.4 5.36 6.4 z M57.42000000000001 12.3 l4.24 0 c2.02 0 3.58 -0.84 3.58 -2.86 c0 -2.16 -1.68 -2.68 -3.5 -2.68 l-4.32 0 l0 5.54 z M61.70000000000001 13.46 l-4.28 0 l0 6.54 l-1.36 0 l0 -14.4 l5.64 0 c3.16 0 4.9 1.12 4.9 3.78 c0 1.82 -0.68 2.78 -2.34 3.52 c1.7 0.58 1.8 2.38 1.84 3.9 c0.06 2.18 0.24 2.78 0.6 3.06 l0 0.14 l-1.5 0 c-0.56 -0.98 -0.42 -3.68 -0.64 -4.78 c-0.32 -1.56 -1.5 -1.76 -2.86 -1.76 z M71.26 20 l-1.36 0 l0 -14.4 l1.36 0 l0 14.4 z M74.22000000000001 15.7 l1.32 0 c0.22 2.58 1.94 3.52 4.14 3.52 c2.58 0 3.66 -1.4 3.66 -2.98 c0 -4.46 -8.78 -1.5 -8.78 -7.16 c0 -2 1.66 -3.86 4.88 -3.86 c3.24 0 4.86 1.96 4.84 4.3 l-1.3 0 c0 -2.2 -1.7 -3.14 -3.54 -3.14 c-2.76 0 -3.76 1.7 -3.52 3.18 c0.62 3.72 8.78 1.04 8.78 6.62 c0 2.64 -1.94 4.2 -5.26 4.2 c-3 0 -5.22 -1.56 -5.22 -4.68 z M96.98000000000002 20 l-9.78 0 l0 -14.4 l9.58 0 l0 1.16 l-8.22 0 l0 5.2 l7.42 0 l0 1.16 l-7.42 0 l0 5.72 l8.42 0 l0 1.16 z M100.76 12.3 l4.24 0 c2.02 0 3.58 -0.84 3.58 -2.86 c0 -2.16 -1.68 -2.68 -3.5 -2.68 l-4.32 0 l0 5.54 z M105.04 13.46 l-4.28 0 l0 6.54 l-1.36 0 l0 -14.4 l5.64 0 c3.16 0 4.9 1.12 4.9 3.78 c0 1.82 -0.68 2.78 -2.34 3.52 c1.7 0.58 1.8 2.38 1.84 3.9 c0.06 2.18 0.24 2.78 0.6 3.06 l0 0.14 l-1.5 0 c-0.56 -0.98 -0.42 -3.68 -0.64 -4.78 c-0.32 -1.56 -1.5 -1.76 -2.86 -1.76 z M111.46000000000001 6.76 l0 -1.16 l10.48 0 l0 1.16 l-4.56 0 l0 13.24 l-1.36 0 l0 -13.24 l-4.56 0 z M130.78000000000003 12.3 l4.24 0 c2.02 0 3.58 -0.84 3.58 -2.86 c0 -2.16 -1.68 -2.68 -3.5 -2.68 l-4.32 0 l0 5.54 z M135.06000000000003 13.46 l-4.28 0 l0 6.54 l-1.36 0 l0 -14.4 l5.64 0 c3.16 0 4.9 1.12 4.9 3.78 c0 1.82 -0.68 2.78 -2.34 3.52 c1.7 0.58 1.8 2.38 1.84 3.9 c0.06 2.18 0.24 2.78 0.6 3.06 l0 0.14 l-1.5 0 c-0.56 -0.98 -0.42 -3.68 -0.64 -4.78 c-0.32 -1.56 -1.5 -1.76 -2.86 -1.76 z M152.56000000000003 20 l-9.78 0 l0 -14.4 l9.58 0 l0 1.16 l-8.22 0 l0 5.2 l7.42 0 l0 1.16 l-7.42 0 l0 5.72 l8.42 0 l0 1.16 z M165.98000000000002 13.719999999999999 l-4.86 0 l0 -1.16 l6.16 0 l0 7.44 l-1.16 0 l0 -2.46 c-1 1.72 -2.54 2.84 -5.38 2.84 c-3.64 0 -6.3 -2.54 -6.3 -7.66 c0 -4.22 2.12 -7.5 6.66 -7.5 c3.02 0 5.4 1.48 6.02 4.56 l-1.4 0 c-0.48 -2.16 -2.38 -3.4 -4.52 -3.4 c-3.8 0 -5.4 2.8 -5.4 6.88 c0 3.18 1.92 5.96 5.22 5.96 c1.56 0 3.4 -0.66 4.34 -2.52 c0.46 -0.9 0.6 -1.9 0.62 -2.98 z M180.20000000000002 20 l-8.28 -12.56 l-0.04 0 l0 12.56 l-1.36 0 l0 -14.4 l1.54 0 l8.32 12.58 l0.04 0 l0 -12.58 l1.36 0 l0 14.4 l-1.58 0 z M184.24000000000004 15.7 l1.32 0 c0.22 2.58 1.94 3.52 4.14 3.52 c2.58 0 3.66 -1.4 3.66 -2.98 c0 -4.46 -8.78 -1.5 -8.78 -7.16 c0 -2 1.66 -3.86 4.88 -3.86 c3.24 0 4.86 1.96 4.84 4.3 l-1.3 0 c0 -2.2 -1.7 -3.14 -3.54 -3.14 c-2.76 0 -3.76 1.7 -3.52 3.18 c0.62 3.72 8.78 1.04 8.78 6.62 c0 2.64 -1.94 4.2 -5.26 4.2 c-3 0 -5.22 -1.56 -5.22 -4.68 z M198.66000000000003 20 l-1.36 0 l0 -14.4 l1.36 0 l0 7.46 l7.38 -7.46 l1.54 0 l-5.68 5.74 l6.68 8.66 l-1.66 0 l-6 -7.82 l-2.26 2.26 l0 5.56 z M210.64000000000001 20 l-1.4 0 l5.66 -14.4 l1.54 0 l5.52 14.4 l-1.4 0 l-1.66 -4.52 l-6.56 0 z M215.62000000000003 6.76 l-2.82 7.56 l5.64 0 z M225.20000000000002 20 l-1.36 0 l0 -14.4 l5.26 0 c3.74 0 4.7 1.86 4.7 4.02 c0 3.22 -2.86 4.02 -5.52 4.02 l-3.08 0 l0 6.36 z M225.20000000000002 12.48 l3.12 0 c2.54 0 4.12 -0.52 4.12 -2.96 c0 -1.8 -1.16 -2.76 -3.72 -2.76 l-3.52 0 l0 5.72 z M235.36000000000004 15.7 l1.32 0 c0.22 2.58 1.94 3.52 4.14 3.52 c2.58 0 3.66 -1.4 3.66 -2.98 c0 -4.46 -8.78 -1.5 -8.78 -7.16 c0 -2 1.66 -3.86 4.88 -3.86 c3.24 0 4.86 1.96 4.84 4.3 l-1.3 0 c0 -2.2 -1.7 -3.14 -3.54 -3.14 c-2.76 0 -3.76 1.7 -3.52 3.18 c0.62 3.72 8.78 1.04 8.78 6.62 c0 2.64 -1.94 4.2 -5.26 4.2 c-3 0 -5.22 -1.56 -5.22 -4.68 z M249.56000000000003 20 l-1.36 0 l0 -14.4 l9.28 0 l0 1.16 l-7.92 0 l0 5.2 l7.2 0 l0 1.16 l-7.2 0 l0 6.88 z M261.32000000000005 17.06 l7.96 -9.14 c-0.76 -0.84 -1.92 -1.54 -3.76 -1.54 c-3.7 0 -5.32 3.12 -5.32 6.44 c0 1.6 0.36 3.08 1.12 4.24 z M269.92 8.8 l-7.94 9.06 c0.84 0.84 2.04 1.36 3.58 1.36 c3.74 0 5.34 -3.02 5.34 -6.4 c0 -1.4 -0.3 -2.86 -0.98 -4.02 z M270.12 6.960000000000001 l1.66 -1.9 l0.78 0.7 l-1.74 2 c0.76 0.86 1.44 2.68 1.44 5.06 c0 4.14 -2.28 7.56 -6.72 7.56 c-1.82 0 -3.28 -0.58 -4.38 -1.58 l-1.7 1.94 l-0.78 -0.68 l1.78 -2.02 c-1.08 -1.34 -1.62 -3.18 -1.62 -5.22 c0 -4.26 2.44 -7.6 6.64 -7.6 c1.8 0 3.4 0.52 4.64 1.74 z M276.36 12.3 l4.24 0 c2.02 0 3.58 -0.84 3.58 -2.86 c0 -2.16 -1.68 -2.68 -3.5 -2.68 l-4.32 0 l0 5.54 z M280.64000000000004 13.46 l-4.28 0 l0 6.54 l-1.36 0 l0 -14.4 l5.64 0 c3.16 0 4.9 1.12 4.9 3.78 c0 1.82 -0.68 2.78 -2.34 3.52 c1.7 0.58 1.8 2.38 1.84 3.9 c0.06 2.18 0.24 2.78 0.6 3.06 l0 0.14 l-1.5 0 c-0.56 -0.98 -0.42 -3.68 -0.64 -4.78 c-0.32 -1.56 -1.5 -1.76 -2.86 -1.76 z M298.14 20 l-9.78 0 l0 -14.4 l9.58 0 l0 1.16 l-8.22 0 l0 5.2 l7.42 0 l0 1.16 l-7.42 0 l0 5.72 l8.42 0 l0 1.16 z M301.92 12.3 l4.24 0 c2.02 0 3.58 -0.84 3.58 -2.86 c0 -2.16 -1.68 -2.68 -3.5 -2.68 l-4.32 0 l0 5.54 z M306.20000000000005 13.46 l-4.28 0 l0 6.54 l-1.36 0 l0 -14.4 l5.64 0 c3.16 0 4.9 1.12 4.9 3.78 c0 1.82 -0.68 2.78 -2.34 3.52 c1.7 0.58 1.8 2.38 1.84 3.9 c0.06 2.18 0.24 2.78 0.6 3.06 l0 0.14 l-1.5 0 c-0.56 -0.98 -0.42 -3.68 -0.64 -4.78 c-0.32 -1.56 -1.5 -1.76 -2.86 -1.76 z M313.16 15.7 l1.32 0 c0.22 2.58 1.94 3.52 4.14 3.52 c2.58 0 3.66 -1.4 3.66 -2.98 c0 -4.46 -8.78 -1.5 -8.78 -7.16 c0 -2 1.66 -3.86 4.88 -3.86 c3.24 0 4.86 1.96 4.84 4.3 l-1.3 0 c0 -2.2 -1.7 -3.14 -3.54 -3.14 c-2.76 0 -3.76 1.7 -3.52 3.18 c0.62 3.72 8.78 1.04 8.78 6.62 c0 2.64 -1.94 4.2 -5.26 4.2 c-3 0 -5.22 -1.56 -5.22 -4.68 z M335.92 20 l-9.78 0 l0 -14.4 l9.58 0 l0 1.16 l-8.22 0 l0 5.2 l7.42 0 l0 1.16 l-7.42 0 l0 5.72 l8.42 0 l0 1.16 z M347.44000000000005 20 l-9.08 0 l0 -14.4 l1.36 0 l0 13.24 l7.72 0 l0 1.16 z M348.7200000000001 15.7 l1.32 0 c0.22 2.58 1.94 3.52 4.14 3.52 c2.58 0 3.66 -1.4 3.66 -2.98 c0 -4.46 -8.78 -1.5 -8.78 -7.16 c0 -2 1.66 -3.86 4.88 -3.86 c3.24 0 4.86 1.96 4.84 4.3 l-1.3 0 c0 -2.2 -1.7 -3.14 -3.54 -3.14 c-2.76 0 -3.76 1.7 -3.52 3.18 c0.62 3.72 8.78 1.04 8.78 6.62 c0 2.64 -1.94 4.2 -5.26 4.2 c-3 0 -5.22 -1.56 -5.22 -4.68 z M363.1400000000001 20 l-1.36 0 l0 -14.4 l1.36 0 l0 7.46 l7.38 -7.46 l1.54 0 l-5.68 5.74 l6.68 8.66 l-1.66 0 l-6 -7.82 l-2.26 2.26 l0 5.56 z M375.12000000000006 20 l-1.4 0 l5.66 -14.4 l1.54 0 l5.52 14.4 l-1.4 0 l-1.66 -4.52 l-6.56 0 z M380.1000000000001 6.76 l-2.82 7.56 l5.64 0 z M389.68000000000006 20 l-1.36 0 l0 -14.4 l5.26 0 c3.74 0 4.7 1.86 4.7 4.02 c0 3.22 -2.86 4.02 -5.52 4.02 l-3.08 0 l0 6.36 z M389.68000000000006 12.48 l3.12 0 c2.54 0 4.12 -0.52 4.12 -2.96 c0 -1.8 -1.16 -2.76 -3.72 -2.76 l-3.52 0 l0 5.72 z"/></g>
			</g>
		</svg>
	